<svg width="228" height="60" viewBox="0 0 228 60" fill="none" xmlns="http://www.w3.org/2000/svg">
<g clip-path="url(#clip0_4_84)">
<path d="M20.8333 26.3333V33.6667H26.3333V46.5H33.6666V33.6667H39.1666L41 26.3333H33.6666V22.6667C33.6666 22.1804 33.8598 21.7141 34.2036 21.3703C34.5474 21.0265 35.0138 20.8333 35.5 20.8333H41V13.5H35.5C33.0688 13.5 30.7373 14.4658 29.0182 16.1849C27.2991 17.9039 26.3333 20.2355 26.3333 22.6667V26.3333H20.8333Z" stroke="white" stroke-width="2.75" stroke-linecap="round" stroke-linejoin="round"/>
</g>
<g clip-path="url(#clip1_4_84)">
<path d="M132.333 15.3517C130.5 16.25 128.703 16.6148 126.833 17.1667C124.778 14.8475 121.731 14.7192 118.803 15.8155C115.876 16.9118 113.958 19.5922 114 22.6667V24.5C108.051 24.6522 102.753 21.9425 99.3334 17.1667C99.3334 17.1667 91.6664 30.7938 106.667 37.3333C103.235 39.6195 99.8119 41.1613 95.6667 41C101.731 44.3055 108.341 45.4422 114.062 43.7812C120.626 41.8745 126.019 36.9557 128.089 29.5875C128.707 27.3466 129.013 25.0314 129 22.707C128.997 22.2505 131.769 17.625 132.333 15.3498V15.3517Z" stroke="white" stroke-width="2.75" stroke-linecap="round" stroke-linejoin="round"/>
</g>
<g clip-path="url(#clip2_4_84)">
<path d="M209 15.3333H187C184.975 15.3333 183.333 16.975 183.333 19V41C183.333 43.025 184.975 44.6667 187 44.6667H209C211.025 44.6667 212.667 43.025 212.667 41V19C212.667 16.975 211.025 15.3333 209 15.3333Z" stroke="white" stroke-width="2.75" stroke-linecap="round" stroke-linejoin="round"/>
<path d="M190.667 28.1667V37.3333" stroke="white" stroke-width="2.75" stroke-linecap="round" stroke-linejoin="round"/>
<path d="M190.667 22.6667V22.685" stroke="white" stroke-width="2.75" stroke-linecap="round" stroke-linejoin="round"/>
<path d="M198 37.3333V28.1667" stroke="white" stroke-width="2.75" stroke-linecap="round" stroke-linejoin="round"/>
<path d="M205.333 37.3333V31.8333C205.333 30.8609 204.947 29.9282 204.259 29.2406C203.572 28.553 202.639 28.1667 201.667 28.1667C200.694 28.1667 199.762 28.553 199.074 29.2406C198.386 29.9282 198 30.8609 198 31.8333" stroke="white" stroke-width="2.75" stroke-linecap="round" stroke-linejoin="round"/>
</g>
<defs>
<clipPath id="clip0_4_84">
<rect width="44" height="44" fill="white" transform="translate(8 8)"/>
</clipPath>
<clipPath id="clip1_4_84">
<rect width="44" height="44" fill="white" transform="translate(92 8)"/>
</clipPath>
<clipPath id="clip2_4_84">
<rect width="44" height="44" fill="white" transform="translate(176 8)"/>
</clipPath>
</defs>
</svg>
